<svg xmlns="http://www.w3.org/2000/svg" viewBox="0 0 24 24" fill="#3498db">
  <path d="M21.17 2.06A13 13 0 0 0 12 0a13 13 0 0 0-9.17 2.06A3 3 0 0 0 2 5v14a3 3 0 0 0 .83 2.94A13 13 0 0 0 12 24a13 13 0 0 0 9.17-2.06A3 3 0 0 0 22 19V5a3 3 0 0 0-.83-2.94zM20 19a1 1 0 0 1-.29.71A11 11 0 0 1 12 22a11 11 0 0 1-7.71-2.29A1 1 0 0 1 4 19V5a1 1 0 0 1 .29-.71A11 11 0 0 1 12 2a11 11 0 0 1 7.71 2.29A1 1 0 0 1 20 5v14z"/>
  <path d="M12 10a2 2 0 1 0-2-2 2 2 0 0 0 2 2zm-4 4a2 2 0 1 0-2-2 2 2 0 0 0 2 2zm8 0a2 2 0 1 0-2-2 2 2 0 0 0 2 2zm-4 4a2 2 0 1 0-2-2 2 2 0 0 0 2 2z"/>
</svg>